<svg width="28" height="27" viewBox="0 0 28 27" fill="none" xmlns="http://www.w3.org/2000/svg">
<g filter="url(#filter0_d_47008_12805)">
<path d="M22.9872 3.03849L13.9872 0.0384931C13.8332 -0.012831 13.6668 -0.012831 13.5128 0.0384931L4.51281 3.03849C4.36347 3.08828 4.23358 3.18379 4.14155 3.3115C4.04951 3.43921 3.99999 3.59264 4 3.75006V11.2501C4 11.449 4.07902 11.6397 4.21967 11.7804C4.36032 11.921 4.55109 12.0001 4.75 12.0001C4.94891 12.0001 5.13968 11.921 5.28033 11.7804C5.42098 11.6397 5.5 11.449 5.5 11.2501V4.79068L8.64906 5.83974C7.8124 7.19143 7.54634 8.81991 7.90931 10.3676C8.27229 11.9153 9.23462 13.2557 10.585 14.0944C8.8975 14.7563 7.43875 15.9535 6.37187 17.5904C6.31639 17.6728 6.27785 17.7655 6.25849 17.863C6.23914 17.9605 6.23936 18.0609 6.25913 18.1583C6.27891 18.2557 6.31785 18.3482 6.37369 18.4304C6.42953 18.5126 6.50116 18.5829 6.58441 18.6372C6.66766 18.6915 6.76087 18.7287 6.85863 18.7467C6.95639 18.7647 7.05674 18.763 7.15386 18.7418C7.25097 18.7207 7.34291 18.6804 7.42433 18.6234C7.50575 18.5664 7.57502 18.4938 7.62813 18.4097C9.04094 16.2422 11.2722 15.0001 13.75 15.0001C16.2278 15.0001 18.4591 16.2422 19.8719 18.4097C19.9819 18.5732 20.1518 18.6869 20.3449 18.7261C20.538 18.7653 20.7388 18.7269 20.9039 18.6193C21.0689 18.5116 21.185 18.3433 21.2269 18.1508C21.2689 17.9583 21.2334 17.7569 21.1281 17.5904C20.0612 15.9535 18.5969 14.7563 16.915 14.0944C18.2641 13.2557 19.2255 11.9162 19.5884 10.3696C19.9513 8.82308 19.6861 7.19573 18.8509 5.84443L22.9872 4.46631C23.1366 4.41655 23.2665 4.32105 23.3586 4.19334C23.4506 4.06563 23.5002 3.91218 23.5002 3.75474C23.5002 3.5973 23.4506 3.44386 23.3586 3.31615C23.2665 3.18843 23.1366 3.09294 22.9872 3.04318V3.03849ZM18.25 9.00006C18.2502 9.71148 18.0817 10.4128 17.7584 11.0465C17.4351 11.6802 16.9661 12.2282 16.3899 12.6456C15.8138 13.063 15.1469 13.3378 14.444 13.4475C13.7411 13.5572 13.0222 13.4987 12.3462 13.2768C11.6703 13.0548 11.0566 12.6758 10.5556 12.1708C10.0545 11.6658 9.68028 11.0491 9.46367 10.3715C9.24705 9.69384 9.19419 8.97449 9.30942 8.27246C9.42465 7.57042 9.70469 6.90572 10.1266 6.33287L13.5128 7.45787C13.6668 7.50919 13.8332 7.50919 13.9872 7.45787L17.3734 6.33287C17.9432 7.10536 18.2505 8.04015 18.25 9.00006ZM13.75 5.95974L7.12187 3.75006L13.75 1.54037L20.3781 3.75006L13.75 5.95974Z" fill="#1C1C1C"/>
</g>
<defs>
<filter id="filter0_d_47008_12805" x="0" y="0" width="27.5002" height="26.7588" filterUnits="userSpaceOnUse" color-interpolation-filters="sRGB">
<feFlood flood-opacity="0" result="BackgroundImageFix"/>
<feColorMatrix in="SourceAlpha" type="matrix" values="0 0 0 0 0 0 0 0 0 0 0 0 0 0 0 0 0 0 127 0" result="hardAlpha"/>
<feOffset dy="4"/>
<feGaussianBlur stdDeviation="2"/>
<feComposite in2="hardAlpha" operator="out"/>
<feColorMatrix type="matrix" values="0 0 0 0 0 0 0 0 0 0 0 0 0 0 0 0 0 0 0.25 0"/>
<feBlend mode="normal" in2="BackgroundImageFix" result="effect1_dropShadow_47008_12805"/>
<feBlend mode="normal" in="SourceGraphic" in2="effect1_dropShadow_47008_12805" result="shape"/>
</filter>
</defs>
</svg>
