<svg width="36" height="36" viewBox="0 0 36 36" fill="none" xmlns="http://www.w3.org/2000/svg">
<path d="M13.8333 14.042C14.1785 14.042 14.4583 14.3218 14.4583 14.667L14.4583 21.3337C14.4583 21.6788 14.1785 21.9587 13.8333 21.9587C13.4882 21.9587 13.2083 21.6788 13.2083 21.3337L13.2083 14.667C13.2083 14.3218 13.4882 14.042 13.8333 14.042Z" fill="#5E5E5E"/>
<path d="M22.7917 18.0003C22.7917 18.3455 22.5119 18.6253 22.1667 18.6253H17.8422L19.2753 20.0584C19.5194 20.3025 19.5194 20.6982 19.2753 20.9423C19.0312 21.1863 18.6355 21.1863 18.3914 20.9423L15.8914 18.4423C15.7742 18.3251 15.7083 18.1661 15.7083 18.0003C15.7083 17.8346 15.7742 17.6756 15.8914 17.5584L18.3914 15.0584C18.6355 14.8143 19.0312 14.8143 19.2753 15.0584C19.5194 15.3025 19.5194 15.6982 19.2753 15.9423L17.8422 17.3753H22.1667C22.5119 17.3753 22.7917 17.6551 22.7917 18.0003Z" fill="#5E5E5E"/>
<path fill-rule="evenodd" clip-rule="evenodd" d="M17.9522 9.04199C16.0285 9.04198 14.521 9.04197 13.3448 9.20011C12.1408 9.36198 11.1908 9.69976 10.4451 10.4454C9.69944 11.1911 9.36166 12.1411 9.19979 13.3451C9.04165 14.5213 9.04166 16.0288 9.04167 17.9525V18.0481C9.04166 19.9718 9.04165 21.4793 9.19979 22.6556C9.36166 23.8595 9.69944 24.8095 10.4451 25.5552C11.1908 26.3009 12.1408 26.6387 13.3448 26.8005C14.521 26.9587 16.0285 26.9587 17.9522 26.9587H18.0478C19.9715 26.9587 21.479 26.9587 22.6553 26.8005C23.8592 26.6387 24.8092 26.3009 25.5549 25.5552C26.3006 24.8095 26.6384 23.8595 26.8002 22.6556C26.9584 21.4793 26.9584 19.9718 26.9583 18.0481V17.9525C26.9584 16.0289 26.9584 14.5213 26.8002 13.3451C26.6384 12.1411 26.3006 11.1911 25.5549 10.4454C24.8092 9.69976 23.8592 9.36198 22.6553 9.20011C21.479 9.04197 19.9715 9.04198 18.0478 9.04199H17.9522ZM11.329 11.3293C11.8037 10.8546 12.446 10.5822 13.5113 10.439C14.5946 10.2933 16.0182 10.292 18 10.292C19.9819 10.292 21.4054 10.2933 22.4887 10.439C23.554 10.5822 24.1963 10.8546 24.671 11.3293C25.1457 11.804 25.4181 12.4463 25.5614 13.5116C25.707 14.595 25.7083 16.0185 25.7083 18.0003C25.7083 19.9822 25.707 21.4057 25.5614 22.489C25.4181 23.5543 25.1457 24.1966 24.671 24.6713C24.1963 25.146 23.554 25.4185 22.4887 25.5617C21.4054 25.7073 19.9819 25.7087 18 25.7087C16.0182 25.7087 14.5946 25.7073 13.5113 25.5617C12.446 25.4185 11.8037 25.146 11.329 24.6713C10.8543 24.1966 10.5819 23.5543 10.4386 22.489C10.293 21.4057 10.2917 19.9822 10.2917 18.0003C10.2917 16.0185 10.293 14.595 10.4386 13.5116C10.5819 12.4463 10.8543 11.804 11.329 11.3293Z" fill="#5E5E5E"/>
<path d="M13.8333 14.042C14.1785 14.042 14.4583 14.3218 14.4583 14.667L14.4583 21.3337C14.4583 21.6788 14.1785 21.9587 13.8333 21.9587C13.4882 21.9587 13.2083 21.6788 13.2083 21.3337L13.2083 14.667C13.2083 14.3218 13.4882 14.042 13.8333 14.042Z" stroke="#5E5E5E"/>
<path d="M22.7917 18.0003C22.7917 18.3455 22.5119 18.6253 22.1667 18.6253H17.8422L19.2753 20.0584C19.5194 20.3025 19.5194 20.6982 19.2753 20.9423C19.0312 21.1863 18.6355 21.1863 18.3914 20.9423L15.8914 18.4423C15.7742 18.3251 15.7083 18.1661 15.7083 18.0003C15.7083 17.8346 15.7742 17.6756 15.8914 17.5584L18.3914 15.0584C18.6355 14.8143 19.0312 14.8143 19.2753 15.0584C19.5194 15.3025 19.5194 15.6982 19.2753 15.9423L17.8422 17.3753H22.1667C22.5119 17.3753 22.7917 17.6551 22.7917 18.0003Z" stroke="#5E5E5E"/>
<path fill-rule="evenodd" clip-rule="evenodd" d="M17.9522 9.04199C16.0285 9.04198 14.521 9.04197 13.3448 9.20011C12.1408 9.36198 11.1908 9.69976 10.4451 10.4454C9.69944 11.1911 9.36166 12.1411 9.19979 13.3451C9.04165 14.5213 9.04166 16.0288 9.04167 17.9525V18.0481C9.04166 19.9718 9.04165 21.4793 9.19979 22.6556C9.36166 23.8595 9.69944 24.8095 10.4451 25.5552C11.1908 26.3009 12.1408 26.6387 13.3448 26.8005C14.521 26.9587 16.0285 26.9587 17.9522 26.9587H18.0478C19.9715 26.9587 21.479 26.9587 22.6553 26.8005C23.8592 26.6387 24.8092 26.3009 25.5549 25.5552C26.3006 24.8095 26.6384 23.8595 26.8002 22.6556C26.9584 21.4793 26.9584 19.9718 26.9583 18.0481V17.9525C26.9584 16.0289 26.9584 14.5213 26.8002 13.3451C26.6384 12.1411 26.3006 11.1911 25.5549 10.4454C24.8092 9.69976 23.8592 9.36198 22.6553 9.20011C21.479 9.04197 19.9715 9.04198 18.0478 9.04199H17.9522ZM11.329 11.3293C11.8037 10.8546 12.446 10.5822 13.5113 10.439C14.5946 10.2933 16.0182 10.292 18 10.292C19.9819 10.292 21.4054 10.2933 22.4887 10.439C23.554 10.5822 24.1963 10.8546 24.671 11.3293C25.1457 11.804 25.4181 12.4463 25.5614 13.5116C25.707 14.595 25.7083 16.0185 25.7083 18.0003C25.7083 19.9822 25.707 21.4057 25.5614 22.489C25.4181 23.5543 25.1457 24.1966 24.671 24.6713C24.1963 25.146 23.554 25.4185 22.4887 25.5617C21.4054 25.7073 19.9819 25.7087 18 25.7087C16.0182 25.7087 14.5946 25.7073 13.5113 25.5617C12.446 25.4185 11.8037 25.146 11.329 24.6713C10.8543 24.1966 10.5819 23.5543 10.4386 22.489C10.293 21.4057 10.2917 19.9822 10.2917 18.0003C10.2917 16.0185 10.293 14.595 10.4386 13.5116C10.5819 12.4463 10.8543 11.804 11.329 11.3293Z" stroke="#5E5E5E"/>
</svg>
